<svg width="364" height="542" viewBox="0 0 364 542" fill="none" xmlns="http://www.w3.org/2000/svg">
<path d="M263 197.5L24.5001 188.5C95.3642 261.684 103.606 305.326 66.9827 376C64.3797 381.023 61.55 386.183 58.5 391.5L87.5 389.5C99.2284 386.74 110.145 384.159 120.5 381.749C134.303 378.536 147.106 375.629 159.5 373.014C164.215 372.019 168.871 371.067 173.5 370.156C205.399 363.878 236.024 359.573 276 357C289.503 331.011 278.03 279.233 263 197.5Z" fill="#D9D9D9"/>
<path d="M24.5001 188.5L263 197.5C263 197.5 267.5 191 264 191C262.414 191 212.551 188.843 158.5 186.484C153.689 186.274 148.846 186.063 144 185.851C83.1652 183.193 22.0001 180.5 22.0001 180.5C17.5125 184.081 18.0153 185.782 22.0001 188.5H24.5001Z" fill="black"/>
<path d="M144 180V185.851C148.846 186.063 153.689 186.274 158.5 186.484V180C156.597 179.572 154.973 179.259 153.5 179.073C151.119 178.772 149.132 178.803 147 179.214C146.045 179.398 145.061 179.659 144 180Z" fill="black"/>
<path d="M122 146L144 147.5C147.105 145.457 149.018 145.951 152.5 147.5L172.5 146C170.95 145.417 169.453 144.886 168 144.403C165.556 143.591 163.237 142.919 161 142.378C159.449 142.004 157.938 141.693 156.453 141.443C154.947 141.19 153.468 140.999 152 140.869C149.084 140.611 146.213 140.592 143.273 140.792C141.387 140.92 139.473 141.139 137.5 141.443C136.355 141.619 135.19 141.825 134 142.058C131.619 142.524 129.134 143.101 126.5 143.782C125.048 144.157 123.551 144.563 122 145V146Z" fill="black"/>
<path d="M152.5 147.5C149.018 145.951 147.105 145.457 144 147.5L147 179.214C149.132 178.803 151.119 178.772 153.5 179.073L152.5 147.5Z" fill="black"/>
<path d="M144 124.188C145.504 124.153 147.01 124.144 148.5 124.162L148.192 119.57L144.022 57.5L141.134 14.5L141 12.5H139L143.093 119.52L143.273 124.206C143.515 124.199 143.757 124.193 144 124.188Z" fill="black"/>
<path d="M162 1L141.134 14.5L144.022 57.5L164.5 45.5L162 1Z" fill="#00660A"/>
<path d="M117 129L122 145C123.551 144.563 125.048 144.157 126.5 143.782L120.5 127.311C118.98 127.824 117.783 128.389 117 129Z" fill="black"/>
<path d="M134 142.058C135.19 141.825 136.355 141.619 137.5 141.443L134 124.793C132.444 124.949 130.937 125.132 129.5 125.341L134 142.058Z" fill="black"/>
<path d="M148.5 124.162C147.01 124.144 145.504 124.153 144 124.188C143.757 124.193 143.515 124.199 143.273 124.206V140.792C146.213 140.592 149.084 140.611 152 140.869L148.5 124.162Z" fill="black"/>
<path d="M156.453 141.443C157.938 141.693 159.449 142.004 161 142.378L163.431 125.5C161.91 125.194 160.253 124.942 158.5 124.744L156.453 141.443Z" fill="black"/>
<path d="M172.5 146V130C172.14 129.235 171.455 128.553 170.5 127.949L168 144.403C169.453 144.886 170.95 145.417 172.5 146Z" fill="black"/>
<path d="M148.5 124.162C151.99 124.204 155.396 124.392 158.5 124.744C160.253 124.942 161.91 125.194 163.431 125.5C166.398 126.098 168.851 126.906 170.5 127.949C171.455 128.553 172.14 129.235 172.5 130C173.85 130.02 174.557 129.647 175.5 126.5C165.3 122.736 156.968 120.081 148.192 119.57L148.5 124.162Z" fill="black"/>
<path d="M134 124.793C136.968 124.495 140.111 124.295 143.273 124.206L143.093 119.52C134.639 119.845 125.407 122.222 113.5 127.5C113.789 129.713 114.347 129.961 115.5 130L117 129C117.783 128.389 118.98 127.824 120.5 127.311C122.845 126.52 125.958 125.854 129.5 125.341C130.937 125.132 132.444 124.949 134 124.793Z" fill="black"/>
<path d="M173.5 370.156C168.871 371.067 164.215 372.019 159.5 373.014L160.737 391.5L164.5 447.754L181 448.256L175.358 389.5L173.5 370.156Z" fill="black"/>
<path d="M76 417.5L41 406.5L23 417.5L32.5 448.5L42.5 475.5C69.0461 477.464 79.1301 482.7 96 493C131.859 491.488 149.206 493.793 177 501.5C218.08 495.964 236.996 498.317 271.5 501.5C281.265 494.069 286.334 488.689 293.5 473.5V448.5L316.5 436L313 428.5L359.5 403C362.96 399.215 363.887 396.751 363 391.5L296 419.994L276 428.5C259.474 434.457 246.145 438.229 189 448.5L181 448.256L164.5 447.754C132.675 450.619 117.249 449.133 90.5 445.5L76 417.5Z" fill="black"/>
<path d="M15.5 385.5C9.59976 390.477 8.44052 393.468 8.49999 399C12.0079 406.185 14.9771 410.153 20.7757 415.5L41 399C48.2532 394.293 52.0771 392.675 58.5 391.5C61.55 386.183 64.3797 381.023 66.9827 376C60.0347 374.755 56.3318 374.341 50 374C35.5381 375.128 27.9238 377.438 15.5 385.5Z" fill="#D9D9D9"/>
<path d="M87.5 389.5L58.5 391.5C52.0771 392.675 48.2532 394.293 41 399L20.7757 415.5C21.4741 416.144 22.2136 416.808 23 417.5L41 406.5C46.0768 401.013 49.6605 398.282 60.5 395.5C71.9988 394.803 78.3222 394.122 89 391.5C101.269 389.158 107.318 388.007 115.967 386.362C115.994 386.357 116.022 386.352 116.05 386.346C116.071 386.342 116.092 386.339 116.112 386.335L120.5 385.5L123.324 383.5L120.5 381.749C110.145 384.159 99.2284 386.74 87.5 389.5Z" fill="black"/>
<path d="M41 406.5L76 417.5L90.5 445.5C117.249 449.133 132.675 450.619 164.5 447.754L160.737 391.5L133 389.5L123.324 383.5L120.5 385.5L116.112 386.335L116.05 386.346L115.967 386.362C107.318 388.007 101.269 389.158 89 391.5C78.3222 394.122 71.9988 394.803 60.5 395.5C49.6605 398.282 46.0768 401.013 41 406.5Z" fill="#181818"/>
<path d="M189 448.5C246.145 438.229 259.474 434.457 276 428.5L296 419.994L288.5 421C256.143 422.443 238.179 421.764 206.5 417.5L184 387.5L175.358 389.5L181 448.256L189 448.5Z" fill="#181818"/>
<path d="M271.5 501.5C236.996 498.317 218.08 495.964 177 501.5C149.206 493.793 131.859 491.488 96 493C79.1301 482.7 69.0461 477.464 42.5 475.5L11 472L1 477L4 510L45 527L108 534H204.5C235.833 536.5 298.8 541.5 300 541.5C301.2 541.5 336.167 533.5 353.5 529.5C357.167 523 364 509.8 362 509C360 508.2 319.833 507.333 300 507L271.5 501.5Z" fill="#002050"/>
<path d="M24.5001 188.5L263 197.5M24.5001 188.5H22.0001M24.5001 188.5C95.3642 261.684 103.606 305.326 66.9827 376M263 197.5C263 197.5 267.5 191 264 191C262.414 191 212.551 188.843 158.5 186.484M263 197.5C278.03 279.233 289.503 331.011 276 357C236.024 359.573 205.399 363.878 173.5 370.156M22.0001 188.5C18.0153 185.782 17.5125 184.081 22.0001 180.5C22.0001 180.5 83.1652 183.193 144 185.851M22.0001 188.5L50 374M144 185.851V180C145.061 179.659 146.045 179.398 147 179.214M144 185.851C148.846 186.063 153.689 186.274 158.5 186.484M158.5 186.484V180C156.597 179.572 154.973 179.259 153.5 179.073M144 147.5L122 146V145M144 147.5C147.105 145.457 149.018 145.951 152.5 147.5M144 147.5L147 179.214M152.5 147.5L172.5 146M152.5 147.5L153.5 179.073M172.5 146V130M172.5 146C170.95 145.417 169.453 144.886 168 144.403M122 145L117 129M122 145C123.551 144.563 125.048 144.157 126.5 143.782M147 179.214C149.132 178.803 151.119 178.772 153.5 179.073M117 129C117.783 128.389 118.98 127.824 120.5 127.311M117 129L115.5 130C114.347 129.961 113.789 129.713 113.5 127.5C125.407 122.222 134.639 119.845 143.093 119.52M126.5 143.782C129.134 143.101 131.619 142.524 134 142.058M126.5 143.782L120.5 127.311M134 142.058C135.19 141.825 136.355 141.619 137.5 141.443M134 142.058L129.5 125.341M172.5 130C172.14 129.235 171.455 128.553 170.5 127.949M172.5 130C173.85 130.02 174.557 129.647 175.5 126.5C165.3 122.736 156.968 120.081 148.192 119.57M134 124.793C136.968 124.495 140.111 124.295 143.273 124.206M134 124.793C132.444 124.949 130.937 125.132 129.5 125.341M134 124.793L137.5 141.443M137.5 141.443C139.473 141.139 141.387 140.92 143.273 140.792M148.5 124.162C147.01 124.144 145.504 124.153 144 124.188C143.757 124.193 143.515 124.199 143.273 124.206M148.5 124.162C151.99 124.204 155.396 124.392 158.5 124.744M148.5 124.162L152 140.869M148.5 124.162L148.192 119.57M158.5 124.744L156.453 141.443M158.5 124.744C160.253 124.942 161.91 125.194 163.431 125.5M156.453 141.443C157.938 141.693 159.449 142.004 161 142.378M156.453 141.443C154.947 141.19 153.468 140.999 152 140.869M161 142.378C163.237 142.919 165.556 143.591 168 144.403M161 142.378L163.431 125.5M170.5 127.949C168.851 126.906 166.398 126.098 163.431 125.5M170.5 127.949L168 144.403M143.273 124.206V140.792M143.273 124.206L143.093 119.52M141.134 14.5L141 12.5H139L143.093 119.52M141.134 14.5L162 1L164.5 45.5L144.022 57.5M141.134 14.5L144.022 57.5M144.022 57.5L148.192 119.57M58.5 391.5L87.5 389.5C99.2284 386.74 110.145 384.159 120.5 381.749M58.5 391.5C61.55 386.183 64.3797 381.023 66.9827 376M58.5 391.5C52.0771 392.675 48.2532 394.293 41 399L20.7757 415.5M41 406.5L76 417.5L90.5 445.5C117.249 449.133 132.675 450.619 164.5 447.754M41 406.5L23 417.5M41 406.5C46.0768 401.013 49.6605 398.282 60.5 395.5C71.9988 394.803 78.3222 394.122 89 391.5C101.269 389.158 107.318 388.007 115.967 386.362M271.5 501.5C281.265 494.069 286.334 488.689 293.5 473.5V448.5L316.5 436L313 428.5L359.5 403C362.96 399.215 363.887 396.751 363 391.5L296 419.994M271.5 501.5C236.996 498.317 218.08 495.964 177 501.5C149.206 493.793 131.859 491.488 96 493C79.1301 482.7 69.0461 477.464 42.5 475.5M271.5 501.5L300 507C319.833 507.333 360 508.2 362 509C364 509.8 357.167 523 353.5 529.5C336.167 533.5 301.2 541.5 300 541.5C298.8 541.5 235.833 536.5 204.5 534H108L45 527L4 510L1 477L11 472L42.5 475.5M42.5 475.5L32.5 448.5L23 417.5M23 417.5C22.2136 416.808 21.4741 416.144 20.7757 415.5M50 374C35.5381 375.128 27.9238 377.438 15.5 385.5C9.59976 390.477 8.44052 393.468 8.49999 399C12.0079 406.185 14.9771 410.153 20.7757 415.5M50 374C56.3318 374.341 60.0347 374.755 66.9827 376M159.5 373.014C164.215 372.019 168.871 371.067 173.5 370.156M159.5 373.014L160.737 391.5M159.5 373.014C147.106 375.629 134.303 378.536 120.5 381.749M164.5 447.754L181 448.256M164.5 447.754L160.737 391.5M173.5 370.156L175.358 389.5M181 448.256L189 448.5C246.145 438.229 259.474 434.457 276 428.5L296 419.994M181 448.256L175.358 389.5M175.358 389.5L184 387.5L206.5 417.5C238.179 421.764 256.143 422.443 288.5 421L296 419.994M160.737 391.5L133 389.5L123.324 383.5M120.5 381.749L123.324 383.5M120.5 127.311C122.845 126.52 125.958 125.854 129.5 125.341M143.273 140.792C146.213 140.592 149.084 140.611 152 140.869M148.192 119.57C146.514 119.473 144.82 119.454 143.093 119.52M120.5 385.5L123.324 383.5M120.5 385.5L116.112 386.335M120.5 385.5C118.946 385.796 117.496 386.071 116.112 386.335M116.112 386.335L116.05 386.346M116.112 386.335C116.092 386.339 116.071 386.342 116.05 386.346M116.05 386.346L115.967 386.362M116.05 386.346C116.022 386.352 115.994 386.357 115.967 386.362" stroke="black"/>
</svg>
